<?xml version="1.0" encoding="iso-8859-1"?>
<!-- Uploaded to: SVG Repo, www.svgrepo.com, Generator: SVG Repo Mixer Tools -->
<svg height="800px" width="800px" version="1.1" id="Layer_1" xmlns="http://www.w3.org/2000/svg" xmlns:xlink="http://www.w3.org/1999/xlink" 
	 viewBox="0 0 512 512" xml:space="preserve">
<path style="fill:#151f42;" d="M397.913,389.565v44.522c0,4.61-3.738,8.348-8.348,8.348c-4.61,0-8.348-3.738-8.348-8.348v-44.522
	c0-1.534-1.249-2.783-2.783-2.783H66.783c-1.534,0-2.783,1.249-2.783,2.783v44.522c0,4.61-3.738,8.348-8.348,8.348
	s-8.348-3.738-8.348-8.348v-44.522c0-10.74,8.739-19.478,19.478-19.478h147.478V100.174c0-4.61,3.738-8.348,8.348-8.348
	c4.61,0,8.348,3.738,8.348,8.348v269.913h147.478C389.174,370.087,397.913,378.825,397.913,389.565z M316.157,52.87h4.384
	c4.61,0,8.348-3.738,8.348-8.348s-3.738-8.348-8.348-8.348h-4.384c-4.61,0-8.348,3.738-8.348,8.348S311.546,52.87,316.157,52.87z
	 M353.428,52.87h4.384c4.61,0,8.348-3.738,8.348-8.348s-3.738-8.348-8.348-8.348h-4.384c-4.61,0-8.348,3.738-8.348,8.348
	S348.818,52.87,353.428,52.87z M469.629,36.174h-4.384c-4.61,0-8.348,3.738-8.348,8.348s3.738,8.348,8.348,8.348h4.384
	c4.61,0,8.348-3.738,8.348-8.348S474.239,36.174,469.629,36.174z M503.652,81.849c-4.61,0-8.348,3.738-8.348,8.348v4.385
	c0,4.61,3.738,8.348,8.348,8.348S512,99.192,512,94.582v-4.385C512,85.586,508.262,81.849,503.652,81.849z M491.137,455.146
	c-0.653,0.641-1.371,1.22-2.135,1.721c-3.856,2.527-4.934,7.701-2.406,11.558c1.602,2.445,4.27,3.773,6.99,3.773
	c1.569,0,3.157-0.442,4.568-1.367c1.674-1.097,3.249-2.365,4.68-3.771c3.29-3.23,3.339-8.515,0.109-11.805
	C499.712,451.966,494.428,451.917,491.137,455.146z M395.085,36.174h-4.384c-4.61,0-8.348,3.738-8.348,8.348
	s3.738,8.348,8.348,8.348h4.384c4.61,0,8.348-3.738,8.348-8.348S399.695,36.174,395.085,36.174z M503.652,417.294
	c-4.61,0-8.348,3.738-8.348,8.348v4.384c0,4.61,3.738,8.348,8.348,8.348s8.348-3.738,8.348-8.348v-4.384
	C512,421.032,508.262,417.294,503.652,417.294z M494.073,61.046c1.398,3.079,4.432,4.9,7.607,4.9c1.154,0,2.326-0.24,3.446-0.748
	c4.197-1.906,6.056-6.854,4.151-11.053c-0.828-1.825-1.842-3.578-3.014-5.208c-2.69-3.744-7.907-4.599-11.65-1.909
	c-3.744,2.69-4.599,7.906-1.909,11.65C493.236,59.42,493.697,60.217,494.073,61.046z M432.356,36.174h-4.384
	c-4.61,0-8.348,3.738-8.348,8.348s3.738,8.348,8.348,8.348h4.384c4.61,0,8.348-3.738,8.348-8.348S436.966,36.174,432.356,36.174z
	 M503.652,380.023c-4.61,0-8.348,3.738-8.348,8.348v4.384c0,4.61,3.738,8.348,8.348,8.348s8.348-3.738,8.348-8.348v-4.384
	C512,383.761,508.262,380.023,503.652,380.023z M503.652,230.935c-4.61,0-8.348,3.738-8.348,8.348v4.384
	c0,4.61,3.738,8.348,8.348,8.348s8.348-3.738,8.348-8.348v-4.384C512,234.673,508.262,230.935,503.652,230.935z M503.652,193.664
	c-4.61,0-8.348,3.738-8.348,8.348v4.384c0,4.61,3.738,8.348,8.348,8.348s8.348-3.738,8.348-8.348v-4.384
	C512,197.402,508.262,193.664,503.652,193.664z M503.652,119.12c-4.61,0-8.348,3.738-8.348,8.348v4.385
	c0,4.61,3.738,8.348,8.348,8.348s8.348-3.738,8.348-8.348v-4.385C512,122.858,508.262,119.12,503.652,119.12z M503.652,156.393
	c-4.61,0-8.348,3.738-8.348,8.348v4.384c0,4.61,3.738,8.348,8.348,8.348s8.348-3.738,8.348-8.348v-4.384
	C512,160.13,508.262,156.393,503.652,156.393z M503.652,342.751c-4.61,0-8.348,3.738-8.348,8.348v4.384
	c0,4.61,3.738,8.348,8.348,8.348s8.348-3.738,8.348-8.348v-4.384C512,346.488,508.262,342.751,503.652,342.751z M503.652,305.479
	c-4.61,0-8.348,3.738-8.348,8.348v4.384c0,4.61,3.738,8.348,8.348,8.348s8.348-3.738,8.348-8.348v-4.384
	C512,309.217,508.262,305.479,503.652,305.479z M503.652,268.208c-4.61,0-8.348,3.738-8.348,8.348v4.384
	c0,4.61,3.738,8.348,8.348,8.348S512,285.55,512,280.94v-4.384C512,271.945,508.262,268.208,503.652,268.208z M461.357,459.13
	h-2.226c-4.61,0-8.348,3.738-8.348,8.348s3.738,8.348,8.348,8.348h2.226c4.61,0,8.348-3.738,8.348-8.348
	S465.967,459.13,461.357,459.13z"/>
<path style="fill:#a3781a;" d="M326.589,245.235l-97.849,64.578c-3.719,2.454-8.543,2.454-12.261,0l-97.849-64.578
	c-6.666-4.4-6.666-14.18,0-18.579l97.849-64.578c3.719-2.454,8.543-2.454,12.261,0l97.849,64.578
	C333.255,231.054,333.255,240.835,326.589,245.235z"/>
<path style="fill:#a3781a;" d="M111.304,422.957v77.913c0,6.147-4.983,11.13-11.13,11.13H11.13C4.983,512,0,507.017,0,500.87
	v-77.913c0-6.147,4.983-11.13,11.13-11.13h89.043C106.321,411.826,111.304,416.809,111.304,422.957z"/>
<path style="fill:#a3781a;" d="M289.391,11.13v77.913c0,6.147-4.983,11.13-11.13,11.13H166.957c-6.147,0-11.13-4.983-11.13-11.13
	V11.13c0-6.147,4.983-11.13,11.13-11.13h111.304C284.408,0,289.391,4.983,289.391,11.13z"/>
<path style="fill:#a3781a;" d="M445.217,422.957v77.913c0,6.147-4.983,11.13-11.13,11.13h-89.043c-6.147,0-11.13-4.983-11.13-11.13
	v-77.913c0-6.147,4.983-11.13,11.13-11.13h89.043C440.234,411.826,445.217,416.809,445.217,422.957z"/>
<path style="fill:#E0A000;" d="M192,211.478c0-4.61,3.738-8.348,8.348-8.348h44.522c4.61,0,8.348,3.738,8.348,8.348
	c0,4.61-3.738,8.348-8.348,8.348h-44.522C195.738,219.826,192,216.088,192,211.478z M267.13,236.522h-89.043
	c-4.61,0-8.348,3.738-8.348,8.348s3.738,8.348,8.348,8.348h89.043c4.61,0,8.348-3.738,8.348-8.348S271.741,236.522,267.13,236.522z"
	/>
</svg>