<?xml version="1.0" encoding="iso-8859-1"?>
<!-- Uploaded to: SVG Repo, www.svgrepo.com, Generator: SVG Repo Mixer Tools -->
<svg height="800px" width="800px" version="1.1" id="Layer_1" xmlns="http://www.w3.org/2000/svg" xmlns:xlink="http://www.w3.org/1999/xlink" 
	 viewBox="0 0 512 512" xml:space="preserve">
<g transform="translate(1 1)">
	<g>
		<path style="fill:#FFE100;" d="M263.533,442.733c-2.56,0-5.12-0.853-6.827-3.413L145.773,302.787
			c-2.56-3.413-2.56-9.387,0.853-11.947c3.413-2.56,9.387-2.56,11.947,0.853l110.933,136.533c2.56,3.413,2.56,9.387-0.853,11.947
			C266.947,441.88,265.24,442.733,263.533,442.733z"/>
		<path style="fill:#FFE100;" d="M84.333,442.733c-0.853,0-2.56,0-3.413-0.853c-4.267-1.707-5.973-6.827-3.413-11.093
			l68.267-136.533c1.707-4.267,6.827-5.973,11.093-3.413c4.267,1.707,5.973,6.827,3.413,11.093L92.013,438.467
			C90.307,441.027,87.747,442.733,84.333,442.733z"/>
		<path style="fill:#FFE100;" d="M263.533,442.733c-1.707,0-3.413-0.853-5.12-1.707c-3.413-2.56-4.267-8.533-0.853-11.947
			l110.933-136.533c3.413-3.413,8.533-4.267,11.947-0.853c3.413,2.56,4.267,8.533,0.853,11.947L270.36,440.173
			C268.653,441.88,266.093,442.733,263.533,442.733z"/>
		<path style="fill:#FFE100;" d="M442.733,442.733c-3.413,0-5.973-1.707-7.68-5.12L366.787,301.08
			c-1.707-4.267,0-9.387,3.413-11.093c4.267-1.707,9.387,0,11.093,3.413l68.267,136.533c1.707,4.267,0,9.387-3.413,11.093
			C445.293,442.733,444.44,442.733,442.733,442.733z"/>
		<path style="fill:#FFE100;" d="M135.533,220.867c-2.56,0-4.267-0.853-5.973-2.56c-3.413-3.413-3.413-8.533,0-11.947l128-119.467
			c3.413-3.413,8.533-3.413,11.947,0s3.413,8.533,0,11.947l-128,119.467C139.8,220.013,137.24,220.867,135.533,220.867z"/>
		<path style="fill:#FFE100;" d="M391.533,220.867c-1.707,0-4.267-0.853-5.973-2.56l-128-119.467c-3.413-3.413-3.413-8.533,0-11.947
			c3.413-3.413,8.533-3.413,11.947,0l128,119.467c3.413,3.413,3.413,8.533,0,11.947C395.8,220.013,394.093,220.867,391.533,220.867z
			"/>
	</g>
	<g>
		<polygon style="fill:#63D3FD;" points="24.6,502.467 127,502.467 127,434.2 24.6,434.2 		"/>
		<polygon style="fill:#63D3FD;" points="203.8,502.467 306.2,502.467 306.2,434.2 203.8,434.2 		"/>
		<polygon style="fill:#63D3FD;" points="383,502.467 485.4,502.467 485.4,434.2 383,434.2 		"/>
	</g>
	<g>
		<polygon style="fill:#FFE100;" points="41.667,297.667 229.4,297.667 229.4,212.333 41.667,212.333 		"/>
		<polygon style="fill:#FFE100;" points="161.133,92.867 348.867,92.867 348.867,7.533 161.133,7.533 		"/>
		<polygon style="fill:#FFE100;" points="280.6,297.667 468.333,297.667 468.333,212.333 280.6,212.333 		"/>
	</g>
	<g>
		<polygon style="fill:#FFA800;" points="442.733,297.667 468.333,297.667 468.333,212.333 442.733,212.333 		"/>
		<polygon style="fill:#FFA800;" points="323.267,92.867 348.867,92.867 348.867,7.533 323.267,7.533 		"/>
	</g>
	<polygon style="fill:#3DB9F9;" points="459.8,502.467 485.4,502.467 485.4,434.2 459.8,434.2 	"/>
	<g>
		<polygon style="fill:#FFFFFF;" points="41.667,297.667 67.267,297.667 67.267,212.333 41.667,212.333 		"/>
		<polygon style="fill:#FFFFFF;" points="161.133,92.867 186.733,92.867 186.733,7.533 161.133,7.533 		"/>
		<polygon style="fill:#FFFFFF;" points="24.6,502.467 50.2,502.467 50.2,434.2 24.6,434.2 		"/>
	</g>
	<path d="M127,511H24.6c-5.12,0-8.533-3.413-8.533-8.533V434.2c0-5.12,3.413-8.533,8.533-8.533H127c5.12,0,8.533,3.413,8.533,8.533
		v68.267C135.533,507.587,132.12,511,127,511z M33.133,493.933h85.333v-51.2H33.133V493.933z"/>
	<path d="M306.2,511H203.8c-5.12,0-8.533-3.413-8.533-8.533V434.2c0-5.12,3.413-8.533,8.533-8.533h102.4
		c5.12,0,8.533,3.413,8.533,8.533v68.267C314.733,507.587,311.32,511,306.2,511z M212.333,493.933h85.333v-51.2h-85.333V493.933z"/>
	<path d="M485.4,511H383c-5.12,0-8.533-3.413-8.533-8.533V434.2c0-5.12,3.413-8.533,8.533-8.533h102.4
		c5.12,0,8.533,3.413,8.533,8.533v68.267C493.933,507.587,490.52,511,485.4,511z M391.533,493.933h85.333v-51.2h-85.333V493.933z"/>
	<path d="M229.4,306.2H41.667c-5.12,0-8.533-3.413-8.533-8.533v-85.333c0-5.12,3.413-8.533,8.533-8.533H229.4
		c5.12,0,8.533,3.413,8.533,8.533v85.333C237.933,302.787,234.52,306.2,229.4,306.2z M50.2,289.133h170.667v-68.267H50.2V289.133z"
		/>
	<path d="M348.867,101.4H161.133c-5.12,0-8.533-3.413-8.533-8.533V7.533c0-5.12,3.413-8.533,8.533-8.533h187.733
		c5.12,0,8.533,3.413,8.533,8.533v85.333C357.4,97.987,353.987,101.4,348.867,101.4z M169.667,84.333h170.667V16.067H169.667V84.333
		z"/>
	<path d="M468.333,306.2H280.6c-5.12,0-8.533-3.413-8.533-8.533v-85.333c0-5.12,3.413-8.533,8.533-8.533h187.733
		c5.12,0,8.533,3.413,8.533,8.533v85.333C476.867,302.787,473.453,306.2,468.333,306.2z M289.133,289.133H459.8v-68.267H289.133
		V289.133z"/>
	<path d="M255,442.733c-2.56,0-5.12-0.853-6.827-3.413L137.24,302.787c-2.56-3.413-2.56-9.387,0.853-11.947
		c3.413-2.56,9.387-2.56,11.947,0.853l110.933,136.533c2.56,3.413,2.56,9.387-0.853,11.947
		C258.413,441.88,256.707,442.733,255,442.733z"/>
	<path d="M75.8,442.733c-0.853,0-2.56,0-3.413-0.853c-4.267-1.707-5.973-6.827-3.413-11.093l68.267-136.533
		c1.707-4.267,6.827-5.973,11.093-3.413c4.267,1.707,5.973,6.827,3.413,11.093L83.48,438.467
		C81.773,441.027,79.213,442.733,75.8,442.733z"/>
	<path d="M255,442.733c-1.707,0-3.413-0.853-5.12-1.707c-3.413-2.56-4.267-8.533-0.853-11.947L359.96,292.547
		c2.56-3.413,8.533-4.267,11.947-0.853c3.413,2.56,4.267,8.533,0.853,11.947L261.827,440.173
		C260.12,441.88,257.56,442.733,255,442.733z"/>
	<path d="M434.2,442.733c-3.413,0-5.973-1.707-7.68-5.12L358.253,301.08c-1.707-4.267,0-9.387,3.413-11.093
		c4.267-1.707,9.387,0,11.093,3.413l68.267,136.533c1.707,4.267,0,9.387-3.413,11.093C436.76,442.733,435.907,442.733,434.2,442.733
		z"/>
	<path d="M127,220.867c-2.56,0-4.267-0.853-5.973-2.56c-3.413-3.413-3.413-8.533,0-11.947l128-119.467
		c3.413-3.413,8.533-3.413,11.947,0s3.413,8.533,0,11.947l-128,119.467C131.267,220.013,128.707,220.867,127,220.867z"/>
	<path d="M383,220.867c-1.707,0-4.267-0.853-5.973-2.56l-128-119.467c-3.413-3.413-3.413-8.533,0-11.947s8.533-3.413,11.947,0
		l128,119.467c3.413,3.413,3.413,8.533,0,11.947C387.267,220.013,385.56,220.867,383,220.867z"/>
</g>
</svg>