<?xml version="1.0" encoding="iso-8859-1"?>
<!-- Uploaded to: SVG Repo, www.svgrepo.com, Generator: SVG Repo Mixer Tools -->
<svg version="1.1" id="Layer_1" xmlns="http://www.w3.org/2000/svg" xmlns:xlink="http://www.w3.org/1999/xlink" 
	 viewBox="0 0 511.999 511.999" xml:space="preserve">
<path style="fill:#CCD8E5;" d="M503.665,66.8v316.343c0,17.909-14.509,32.429-32.417,32.429H40.754
	c-17.909,0-32.418-14.52-32.418-32.429V66.8c0-17.909,14.509-32.429,32.418-32.429h430.493
	C489.155,34.371,503.665,48.891,503.665,66.8z"/>
<path style="fill:#DFEAF4;" d="M503.665,66.8v316.343c0,17.909-14.509,32.429-32.417,32.429H183.344l23.752-57.925L339.655,34.371
	h131.592C489.155,34.371,503.665,48.891,503.665,66.8z"/>
<path style="fill:#B8E9F2;" d="M503.665,66.8v290.847H8.337V66.8c0-17.909,14.509-32.429,32.418-32.429h430.493
	C489.155,34.371,503.665,48.891,503.665,66.8z"/>
<path style="fill:#D4F7FC;" d="M503.665,66.8v290.847H207.097L339.655,34.371h131.592C489.155,34.371,503.665,48.891,503.665,66.8z"
	/>
<polygon style="fill:#CCD8E5;" points="343.454,480.173 168.547,480.173 181.034,450.955 196.165,415.571 315.836,415.571 
	330.967,450.955 "/>
<polygon style="fill:#BAC6D1;" points="330.967,450.955 181.034,450.955 196.165,415.571 315.836,415.571 "/>
<rect x="191.65" y="93.653" style="fill:#609DC6;" width="128.703" height="63.335"/>
<g>
	<rect x="62.691" y="235.843" style="fill:#E8C262;" width="86.998" height="63.335"/>
	<rect x="362.303" y="235.843" style="fill:#E8C262;" width="86.998" height="63.335"/>
	<rect x="212.502" y="235.843" style="fill:#E8C262;" width="86.998" height="63.335"/>
</g>
<path d="M320.35,84.047H191.652c-4.603,0-8.332,3.731-8.332,8.332v27.774c0,4.602,3.729,8.332,8.332,8.332s8.332-3.731,8.332-8.332
	v-19.442h112.035v46.674H199.984v-3.903c0-4.602-3.729-8.332-8.332-8.332s-8.332,3.731-8.332,8.332v12.235
	c0,4.602,3.729,8.332,8.332,8.332h56.017v20.821H107.226c-4.603,0-8.332,3.731-8.332,8.332v33.032H62.694
	c-4.603,0-8.332,3.731-8.332,8.332v63.339c0,4.602,3.729,8.332,8.332,8.332h87.002c4.603,0,8.332-3.731,8.332-8.332v-63.339
	c0-4.602-3.729-8.332-8.332-8.332h-34.138v-24.7H247.67v24.7H212.5c-4.603,0-8.332,3.731-8.332,8.332v63.339
	c0,4.602,3.729,8.332,8.332,8.332h87.003c4.603,0,8.332-3.731,8.332-8.332v-63.339c0-4.602-3.729-8.332-8.332-8.332h-35.169v-24.7
	h52.772c4.603,0,8.332-3.731,8.332-8.332c0-4.602-3.729-8.332-8.332-8.332h-52.772V164.05h56.017c4.603,0,8.332-3.731,8.332-8.332
	V92.379C328.682,87.778,324.953,84.047,320.35,84.047z M141.364,289.573H71.026v-46.674h70.338V289.573z M291.171,289.573h-70.339
	v-46.674h70.339V289.573z"/>
<path d="M449.309,226.234H413.11v-33.032c0-4.602-3.729-8.332-8.332-8.332h-63.231c-4.603,0-8.332,3.731-8.332,8.332
	s3.729,8.332,8.332,8.332h54.899v24.7h-34.138c-4.603,0-8.332,3.731-8.332,8.332v63.339c0,4.602,3.729,8.332,8.332,8.332h87.002
	c4.603,0,8.332-3.731,8.332-8.332v-63.339C457.641,229.965,453.911,226.234,449.309,226.234z M440.977,289.573h-70.338v-46.674
	h70.338V289.573z"/>
<path d="M471.246,24.766H40.754C18.283,24.766,0,43.049,0,65.52v59.227c0,4.602,3.731,8.332,8.332,8.332s8.332-3.731,8.332-8.332
	V65.52c0-13.284,10.807-24.09,24.09-24.09h430.492c13.284,0,24.09,10.807,24.09,24.09v284.411h-52.21
	c-4.602,0-8.332,3.731-8.332,8.332s3.731,8.332,8.332,8.332h52.21v15.273c0,13.284-10.807,24.09-24.09,24.09h-155.41H196.164H40.754
	c-13.284,0-24.09-10.807-24.09-24.09v-15.273h398.688c4.602,0,8.332-3.731,8.332-8.332s-3.731-8.332-8.332-8.332H16.664V152.522
	c0-4.602-3.731-8.332-8.332-8.332S0,147.92,0,152.522v229.348c0,22.472,18.283,40.754,40.754,40.754H183.54l-20.494,47.945h-40.034
	c-4.602,0-8.332,3.731-8.332,8.332s3.731,8.332,8.332,8.332h265.975c4.602,0,8.332-3.731,8.332-8.332s-3.731-8.332-8.332-8.332
	h-40.034l-20.494-47.945h142.786c22.472,0,40.754-18.282,40.754-40.754V65.52C512,43.049,493.717,24.766,471.246,24.766z
	 M330.83,470.568H181.17l14.238-33.31h121.185L330.83,470.568z"/>
<path d="M253.972,376.221c-3.517,0.879-6.116,4.048-6.291,7.67c-0.364,7.534,9.106,11.629,14.33,6.172
	c2.663-2.782,3.078-7.177,0.913-10.385C261.01,376.772,257.341,375.379,253.972,376.221z"/>
</svg>